<?xml version="1.0" encoding="UTF-8" standalone="no"?>
<!DOCTYPE svg PUBLIC "-//W3C//DTD SVG 1.1//EN"
 "http://www.w3.org/Graphics/SVG/1.1/DTD/svg11.dtd">
<!-- Generated by graphviz version 14.0.0 (20250921.2048)
 -->
<!-- Title: services_plugins Pages: 1 -->
<svg width="364pt" height="44pt"
 viewBox="0.00 0.00 364.00 44.00" xmlns="http://www.w3.org/2000/svg" xmlns:xlink="http://www.w3.org/1999/xlink">
<g id="graph0" class="graph" transform="scale(1 1) rotate(0) translate(4 40)">
<title>services_plugins</title>
<polygon fill="white" stroke="none" points="-4,4 -4,-40 360,-40 360,4 -4,4"/>
<!-- P_pdf_reader -->
<g id="node1" class="node">
<title>P_pdf_reader</title>
<path fill="#e3f2fd" stroke="black" d="M116.5,-36C116.5,-36 12,-36 12,-36 6,-36 0,-30 0,-24 0,-24 0,-12 0,-12 0,-6 6,0 12,0 12,0 116.5,0 116.5,0 122.5,0 128.5,-6 128.5,-12 128.5,-12 128.5,-24 128.5,-24 128.5,-30 122.5,-36 116.5,-36"/>
<text xml:space="preserve" text-anchor="middle" x="64.25" y="-14.45" font-family="Segoe UI" font-size="14.00">Plugin: pdf_reader</text>
</g>
<!-- S_pdf_reader -->
<g id="node2" class="node">
<title>S_pdf_reader</title>
<path fill="#fff3e0" stroke="black" d="M344,-36C344,-36 235,-36 235,-36 229,-36 223,-30 223,-24 223,-24 223,-12 223,-12 223,-6 229,0 235,0 235,0 344,0 344,0 350,0 356,-6 356,-12 356,-12 356,-24 356,-24 356,-30 350,-36 344,-36"/>
<text xml:space="preserve" text-anchor="middle" x="289.5" y="-14.45" font-family="Segoe UI" font-size="14.00">Service: pdf_reader</text>
</g>
<!-- P_pdf_reader&#45;&gt;S_pdf_reader -->
<g id="edge1" class="edge">
<title>P_pdf_reader&#45;&gt;S_pdf_reader</title>
<path fill="none" stroke="#90a4ae" d="M128.93,-18C154.64,-18 184.54,-18 211.46,-18"/>
<polygon fill="#90a4ae" stroke="#90a4ae" points="211.28,-21.5 221.28,-18 211.28,-14.5 211.28,-21.5"/>
<text xml:space="preserve" text-anchor="middle" x="175.75" y="-23.85" font-family="Segoe UI" font-size="12.00" fill="#455a64">extract_text</text>
</g>
</g>
</svg>
